# xmcd CD database file
#
# Track frame offsets:
#	150
#	16488
#	37062
#
# Disc length: 672 seconds
#
# Revision: 1
# Processed by: cddbd v1.5.2PL0 Copyright (c) Steve Scherf et al.
# Submitted via: CDex 1.50beta10
#
DISCID=1f029e03
DTITLE=Brendan Croker - Running on down this road
DYEAR=1900
DGENRE=
TTITLE0=Running on down this road
TTITLE1=Anything I can say
TTITLE2=Take me back baby
EXTD=Silvertone Records
EXTT0=
EXTT1=
EXTT2=
PLAYORDER=
